<svg width="2298" height="1700" viewBox="0 0 2298 1700" fill="none" xmlns="http://www.w3.org/2000/svg">
<path d="M2157.01 1598.15H2158.38L2163.42 1611H2162.1L2160.54 1607H2154.69L2153.14 1611H2151.83L2157.01 1598.15ZM2157.64 1599.37L2155.07 1605.96H2160.12L2157.64 1599.37ZM2170.35 1598.15H2171.72L2176.76 1611H2175.44L2173.88 1607H2168.03L2166.48 1611H2165.16L2170.35 1598.15ZM2170.98 1599.37L2168.4 1605.96H2173.46L2170.98 1599.37ZM2179.92 1598.15H2185.77C2188.08 1598.15 2189.71 1599.28 2189.71 1601.5C2189.71 1603.21 2188.8 1604.45 2187.21 1604.77V1604.81C2189.23 1605.08 2189.43 1606.68 2189.48 1608.03C2189.52 1608.91 2189.57 1610.44 2190.06 1611H2188.71C2188.44 1610.59 2188.4 1609.51 2188.35 1608.64C2188.27 1607.38 2188.08 1606.57 2187.64 1606.01C2187.25 1605.51 2186.65 1605.29 2185.97 1605.29H2181.15V1611H2179.92V1598.15ZM2181.15 1604.25H2185.74C2187.18 1604.25 2188.49 1603.33 2188.49 1601.75C2188.49 1600.09 2187.48 1599.19 2185.74 1599.19H2181.15V1604.25ZM2199.31 1597.88C2203.31 1597.88 2205.36 1601.01 2205.36 1604.57C2205.36 1608.05 2203.38 1611.27 2199.31 1611.27C2195.3 1611.27 2193.24 1608.16 2193.24 1604.57C2193.24 1601.03 2195.28 1597.88 2199.31 1597.88ZM2194.47 1604.57C2194.47 1607.4 2195.93 1610.23 2199.31 1610.23C2202.66 1610.23 2204.13 1607.42 2204.13 1604.57C2204.13 1601.78 2202.71 1598.92 2199.29 1598.92C2196.05 1598.92 2194.47 1601.59 2194.47 1604.57ZM2209.25 1598.15H2210.62L2218.11 1609.02H2218.14V1598.15H2219.37V1611H2218L2210.51 1600.13H2210.48V1611H2209.25V1598.15ZM2230.95 1598.15H2232.18V1609.96H2239.38V1611H2230.95V1598.15ZM2242.62 1598.15H2251.5V1599.19H2243.85V1603.84H2251.01V1604.88H2243.85V1609.96H2251.59V1611H2242.62V1598.15ZM2253.87 1598.15H2255.18L2259.36 1609.65H2259.4L2263.54 1598.15H2264.83L2260.06 1610.98L2260.04 1611H2258.64L2253.87 1598.15ZM2268.05 1598.15H2269.28V1611H2268.05V1598.15ZM2273.93 1598.15H2275.3L2282.79 1609.02H2282.83V1598.15H2284.05V1611H2282.68L2275.19 1600.13H2275.16V1611H2273.93V1598.15ZM2288.63 1598.15H2297.5V1599.19H2289.85V1603.84H2297.01V1604.88H2289.85V1609.96H2297.59V1611H2288.63V1598.15ZM2129.89 1628.15H2135.62C2137.83 1628.15 2139.42 1629.43 2139.42 1631.82C2139.42 1634.27 2137.76 1635.49 2135.62 1635.49H2131.12V1641H2129.89V1628.15ZM2131.12 1634.45H2135.35C2137.02 1634.45 2138.19 1633.62 2138.19 1631.82C2138.19 1630.22 2137.26 1629.19 2135.31 1629.19H2131.12V1634.45ZM2143.23 1628.15H2144.46V1633.73H2152.09V1628.15H2153.31V1641H2152.09V1634.77H2144.46V1641H2143.23V1628.15ZM2158.36 1632H2159.87V1633.91H2158.36V1632ZM2158.36 1639.09H2159.87V1641H2158.36V1639.09ZM2171.92 1628.15H2177.36C2179.81 1628.15 2181.48 1629.1 2181.48 1631.28C2181.48 1632.61 2180.65 1633.85 2179.25 1634.18V1634.21C2180.91 1634.43 2181.97 1635.67 2181.97 1637.35C2181.97 1639.72 2180.35 1641 2177.38 1641H2171.92V1628.15ZM2173.15 1633.78H2177.38C2179.16 1633.78 2180.26 1632.92 2180.26 1631.6C2180.26 1629.98 2179.27 1629.19 2177.34 1629.19H2173.15V1633.78ZM2173.15 1639.96H2177.38C2179.54 1639.96 2180.74 1639.15 2180.74 1637.31C2180.74 1635.67 2179.54 1634.83 2177.36 1634.83H2173.15V1639.96ZM2185.93 1628.15H2194.8V1629.19H2187.15V1633.84H2194.32V1634.88H2187.15V1639.96H2194.89V1641H2185.93V1628.15ZM2198.58 1628.15H2199.95L2207.44 1639.02H2207.47V1628.15H2208.7V1641H2207.33L2199.84 1630.13H2199.81V1641H2198.58V1628.15ZM2218.99 1628.15H2220.3L2223.22 1639.4H2223.25L2226.39 1628.15H2227.92L2231.07 1639.4H2231.1L2234.04 1628.15H2235.26L2231.71 1641H2230.42L2227.16 1629.5H2227.12L2223.88 1641H2222.55L2218.99 1628.15ZM2238.61 1628.15H2247.49V1629.19H2239.84V1633.84H2247V1634.88H2239.84V1639.96H2247.58V1641H2238.61V1628.15ZM2251.28 1628.15H2252.51V1639.96H2259.71V1641H2251.28V1628.15ZM2262.95 1628.15H2264.18V1639.96H2271.38V1641H2262.95V1628.15ZM2274.62 1628.15H2283.49V1629.19H2275.84V1633.84H2283.01V1634.88H2275.84V1639.96H2283.58V1641H2274.62V1628.15ZM2287.29 1628.15H2293.14C2295.44 1628.15 2297.08 1629.28 2297.08 1631.5C2297.08 1633.21 2296.16 1634.45 2294.58 1634.77V1634.81C2296.6 1635.08 2296.79 1636.68 2296.85 1638.03C2296.88 1638.91 2296.94 1640.44 2297.42 1641H2296.07C2295.8 1640.59 2295.77 1639.51 2295.71 1638.64C2295.64 1637.38 2295.44 1636.57 2295.01 1636.01C2294.62 1635.51 2294.02 1635.29 2293.34 1635.29H2288.51V1641H2287.29V1628.15ZM2288.51 1634.25H2293.1C2294.54 1634.25 2295.86 1633.33 2295.86 1631.75C2295.86 1630.09 2294.85 1629.19 2293.1 1629.19H2288.51V1634.25ZM2198.56 1658.15H2200.36L2204.81 1669.42L2209.24 1658.15H2211.04V1671H2209.81V1659.89H2209.78L2205.39 1671H2204.23L2199.82 1659.89H2199.79V1671H2198.56V1658.15ZM2219.36 1658.15H2220.72L2225.76 1671H2224.45L2222.88 1667H2217.03L2215.49 1671H2214.17L2219.36 1658.15ZM2219.99 1659.37L2217.41 1665.96H2222.47L2219.99 1659.37ZM2228.91 1658.15H2230.28L2237.77 1669.02H2237.81V1658.15H2239.03V1671H2237.66L2230.17 1660.13H2230.14V1671H2228.91V1658.15ZM2254.79 1657.88C2257.51 1657.88 2259.56 1659.34 2259.56 1661.87H2258.34C2258.25 1659.97 2256.72 1658.92 2254.81 1658.92C2253.06 1658.92 2251.61 1659.64 2251.61 1661.48C2251.61 1662.81 2252.69 1663.22 2253.41 1663.4L2256.54 1664.18C2259.02 1664.79 2260.01 1665.89 2260.01 1667.6C2260.01 1668.86 2259.33 1671.27 2255.1 1671.27C2251.93 1671.27 2249.97 1669.81 2249.97 1667.09V1666.77H2251.19V1666.88C2251.19 1669.24 2252.79 1670.23 2255.35 1670.23C2256.81 1670.23 2258.79 1669.45 2258.79 1667.62C2258.79 1666.45 2257.89 1665.73 2256.21 1665.31L2253.28 1664.59C2251.37 1664.12 2250.38 1663.22 2250.38 1661.5C2250.38 1660.04 2251.39 1657.88 2254.79 1657.88ZM2268.13 1657.88C2270.85 1657.88 2272.9 1659.34 2272.9 1661.87H2271.68C2271.59 1659.97 2270.06 1658.92 2268.15 1658.92C2266.4 1658.92 2264.94 1659.64 2264.94 1661.48C2264.94 1662.81 2266.02 1663.22 2266.74 1663.4L2269.88 1664.18C2272.36 1664.79 2273.35 1665.89 2273.35 1667.6C2273.35 1668.86 2272.67 1671.27 2268.44 1671.27C2265.27 1671.27 2263.31 1669.81 2263.31 1667.09V1666.77H2264.53V1666.88C2264.53 1669.24 2266.13 1670.23 2268.69 1670.23C2270.15 1670.23 2272.13 1669.45 2272.13 1667.62C2272.13 1666.45 2271.23 1665.73 2269.55 1665.31L2266.62 1664.59C2264.71 1664.12 2263.72 1663.22 2263.72 1661.5C2263.72 1660.04 2264.73 1657.88 2268.13 1657.88ZM2280.98 1658.29C2283.18 1658.29 2284.89 1659.5 2284.89 1661.84C2284.89 1662.74 2284.62 1663.53 2284.08 1664.27C2283.54 1665.02 2282.67 1665.76 2280.93 1666.82C2278.93 1668.05 2278.14 1668.95 2277.94 1669.96H2284.94V1671H2276.64C2276.72 1668.79 2277.9 1667.56 2280.3 1666.01C2281.68 1665.11 2282.42 1664.54 2282.98 1663.91C2283.48 1663.33 2283.75 1662.7 2283.75 1661.82C2283.75 1660.24 2282.51 1659.25 2280.93 1659.25C2279 1659.25 2278.08 1660.69 2278.08 1662.58V1662.76H2276.95V1662.58C2276.95 1660.02 2278.37 1658.29 2280.98 1658.29ZM2290.25 1658.56H2296.55V1659.61H2291.04L2290.23 1663.78L2290.27 1663.82C2290.91 1663.08 2291.92 1662.65 2292.93 1662.65C2295.49 1662.65 2297.16 1664.43 2297.16 1667C2297.16 1669.38 2295.27 1671.27 2292.79 1671.27C2290.5 1671.27 2288.7 1669.85 2288.65 1667.4H2289.78C2289.83 1669.15 2291.15 1670.32 2292.88 1670.32C2294.82 1670.32 2296.03 1668.71 2296.03 1666.88C2296.03 1665.01 2294.66 1663.6 2292.8 1663.6C2291.72 1663.6 2290.66 1664.09 2290 1665.1H2289.02L2290.25 1658.56Z" fill="black"/>
</svg>
